<svg width="532" height="131" viewBox="0 0 532 131" fill="none" xmlns="http://www.w3.org/2000/svg">
<path fill-rule="evenodd" clip-rule="evenodd" d="M1.75067 0.329083C1.43398 0.513168 0.910749 1.24607 0.587509 1.95776C0.0184082 3.21109 0 5.20544 0 65.4971C0 125.904 0.0174729 127.781 0.59063 129.043C0.915429 129.759 1.46487 130.496 1.8112 130.681C2.72569 131.171 4.36217 131.072 5.49819 130.459C6.37774 129.985 71.3008 74.8339 74.9204 71.4864C76.8458 69.7057 77.6761 67.8992 77.6761 65.4902C77.6761 62.7804 76.7066 61.0569 73.6998 58.4217C64.798 50.6193 6.29631 0.965578 5.49788 0.534696C4.37715 -0.0702856 2.60495 -0.16732 1.75067 0.329083ZM54.7931 0.616442C54.3451 0.968698 53.8284 1.77617 53.6446 2.41048C53.4247 3.17116 53.3423 7.96671 53.4031 16.4995L53.4955 29.435L66.5998 40.5886C82.1711 53.8421 83.119 54.7369 84.626 57.6049C87.845 63.7302 87.2097 70.6414 82.9337 76.0152C82.3587 76.7378 75.4998 82.7854 67.6918 89.4542L53.4955 101.579L53.4031 114.505C53.3423 123.03 53.4247 127.823 53.6446 128.584C54.3201 130.918 56.7429 131.699 59.0118 130.315C59.6436 129.93 75.6817 116.376 94.652 100.197C121.855 76.9961 129.327 70.468 130.009 69.3079C130.746 68.054 130.873 67.4924 130.873 65.4971C130.873 63.5018 130.746 62.9402 130.009 61.6862C129.327 60.5262 121.855 53.9981 94.652 30.7975C75.6817 14.6178 59.6436 1.06448 59.0118 0.679156C57.5659 -0.202576 55.8664 -0.228161 54.7931 0.616442Z" fill="#66FFCC"/>
<path d="M179.703 51.3636H191.805V97.1591C191.805 100.53 191.142 103.258 189.816 105.341C188.491 107.424 186.587 108.949 184.106 109.915C181.644 110.881 178.699 111.364 175.271 111.364C174.854 111.364 174.457 111.354 174.078 111.335C173.68 111.335 173.263 111.326 172.828 111.307V101.847C173.15 101.866 173.434 101.875 173.68 101.875C173.907 101.894 174.154 101.903 174.419 101.903C176.37 101.903 177.733 101.487 178.51 100.653C179.305 99.839 179.703 98.608 179.703 96.9602V51.3636ZM185.726 45.7386C183.945 45.7386 182.411 45.142 181.123 43.9489C179.835 42.7367 179.191 41.2879 179.191 39.6023C179.191 37.9356 179.835 36.5057 181.123 35.3125C182.411 34.1004 183.945 33.4943 185.726 33.4943C187.544 33.4943 189.087 34.1004 190.356 35.3125C191.644 36.5057 192.288 37.9356 192.288 39.6023C192.288 41.2879 191.644 42.7367 190.356 43.9489C189.087 45.142 187.544 45.7386 185.726 45.7386ZM221.216 95.8523C216.803 95.8523 212.986 94.9148 209.767 93.0398C206.566 91.1458 204.094 88.5133 202.352 85.142C200.61 81.7519 199.738 77.822 199.738 73.3523C199.738 68.8447 200.61 64.9053 202.352 61.5341C204.094 58.1439 206.566 55.5114 209.767 53.6364C212.986 51.7424 216.803 50.7955 221.216 50.7955C225.628 50.7955 229.435 51.7424 232.636 53.6364C235.856 55.5114 238.337 58.1439 240.079 61.5341C241.822 64.9053 242.693 68.8447 242.693 73.3523C242.693 77.822 241.822 81.7519 240.079 85.142C238.337 88.5133 235.856 91.1458 232.636 93.0398C229.435 94.9148 225.628 95.8523 221.216 95.8523ZM221.272 86.4773C223.28 86.4773 224.956 85.9091 226.301 84.7727C227.646 83.6174 228.659 82.0455 229.341 80.0568C230.041 78.0682 230.392 75.8049 230.392 73.267C230.392 70.7292 230.041 68.4659 229.341 66.4773C228.659 64.4886 227.646 62.9167 226.301 61.7614C224.956 60.6061 223.28 60.0284 221.272 60.0284C219.246 60.0284 217.541 60.6061 216.159 61.7614C214.795 62.9167 213.763 64.4886 213.062 66.4773C212.38 68.4659 212.039 70.7292 212.039 73.267C212.039 75.8049 212.38 78.0682 213.062 80.0568C213.763 82.0455 214.795 83.6174 216.159 84.7727C217.541 85.9091 219.246 86.4773 221.272 86.4773ZM250.789 95V36.8182H262.892V58.6932H263.261C263.791 57.5189 264.558 56.3258 265.562 55.1136C266.585 53.8826 267.911 52.8598 269.539 52.0455C271.187 51.2121 273.233 50.7955 275.676 50.7955C278.858 50.7955 281.793 51.6288 284.483 53.2955C287.172 54.9432 289.322 57.4337 290.932 60.767C292.541 64.0814 293.346 68.2386 293.346 73.2386C293.346 78.1061 292.56 82.2159 290.988 85.5682C289.435 88.9015 287.314 91.4299 284.625 93.1534C281.954 94.858 278.962 95.7102 275.647 95.7102C273.299 95.7102 271.301 95.322 269.653 94.5455C268.024 93.7689 266.689 92.7936 265.647 91.6193C264.606 90.4261 263.81 89.2235 263.261 88.0114H262.721V95H250.789ZM262.636 73.1818C262.636 75.7765 262.996 78.0398 263.716 79.9716C264.435 81.9034 265.477 83.4091 266.841 84.4886C268.204 85.5492 269.861 86.0795 271.812 86.0795C273.782 86.0795 275.449 85.5398 276.812 84.4602C278.176 83.3617 279.208 81.8466 279.909 79.9148C280.629 77.964 280.988 75.7197 280.988 73.1818C280.988 70.6629 280.638 68.447 279.937 66.5341C279.236 64.6212 278.204 63.125 276.841 62.0455C275.477 60.9659 273.801 60.4261 271.812 60.4261C269.843 60.4261 268.176 60.947 266.812 61.9886C265.468 63.0303 264.435 64.5076 263.716 66.4205C262.996 68.3333 262.636 70.5871 262.636 73.1818ZM324.632 51.3636V60.4545H298.353V51.3636H324.632ZM304.319 40.9091H316.422V81.5909C316.422 82.7083 316.592 83.5795 316.933 84.2045C317.274 84.8106 317.747 85.2367 318.353 85.483C318.978 85.7292 319.698 85.8523 320.512 85.8523C321.081 85.8523 321.649 85.8049 322.217 85.7102C322.785 85.5966 323.221 85.5114 323.524 85.4545L325.427 94.4602C324.821 94.6496 323.969 94.8674 322.87 95.1136C321.772 95.3788 320.437 95.5398 318.865 95.5966C315.948 95.7102 313.391 95.322 311.194 94.4318C309.016 93.5417 307.321 92.1591 306.109 90.2841C304.897 88.4091 304.3 86.0417 304.319 83.1818V40.9091ZM332.515 95V51.3636H344.248V58.9773H344.703C345.498 56.2689 346.834 54.2235 348.709 52.8409C350.584 51.4394 352.743 50.7386 355.186 50.7386C355.792 50.7386 356.445 50.7765 357.146 50.8523C357.847 50.928 358.462 51.0322 358.993 51.1648V61.9034C358.424 61.733 357.638 61.5814 356.635 61.4489C355.631 61.3163 354.712 61.25 353.879 61.25C352.099 61.25 350.508 61.6383 349.106 62.4148C347.724 63.1723 346.625 64.233 345.811 65.5966C345.015 66.9602 344.618 68.5322 344.618 70.3125V95H332.515ZM376.443 95.8239C373.659 95.8239 371.178 95.3409 369 94.375C366.822 93.3902 365.098 91.9413 363.829 90.0284C362.579 88.0966 361.954 85.6913 361.954 82.8125C361.954 80.3883 362.399 78.3523 363.289 76.7045C364.18 75.0568 365.392 73.7311 366.926 72.7273C368.46 71.7235 370.202 70.9659 372.153 70.4545C374.123 69.9432 376.187 69.5833 378.346 69.375C380.884 69.1098 382.93 68.8636 384.483 68.6364C386.036 68.3902 387.163 68.0303 387.863 67.5568C388.564 67.0833 388.914 66.3826 388.914 65.4545V65.2841C388.914 63.4848 388.346 62.0928 387.21 61.108C386.093 60.1231 384.502 59.6307 382.437 59.6307C380.259 59.6307 378.526 60.1136 377.238 61.0795C375.95 62.0265 375.098 63.2197 374.682 64.6591L363.488 63.75C364.057 61.0985 365.174 58.8068 366.841 56.875C368.507 54.9242 370.657 53.428 373.289 52.3864C375.941 51.3258 379.009 50.7955 382.494 50.7955C384.918 50.7955 387.238 51.0795 389.454 51.6477C391.689 52.2159 393.668 53.0966 395.392 54.2898C397.134 55.483 398.507 57.017 399.511 58.892C400.515 60.7481 401.017 62.9735 401.017 65.5682V95H389.539V88.9489H389.199C388.498 90.3125 387.56 91.5152 386.386 92.5568C385.212 93.5795 383.801 94.3845 382.153 94.9716C380.505 95.5398 378.602 95.8239 376.443 95.8239ZM379.909 87.4716C381.689 87.4716 383.261 87.1212 384.625 86.4205C385.988 85.7008 387.058 84.7348 387.835 83.5227C388.611 82.3106 389 80.9375 389 79.4034V74.7727C388.621 75.0189 388.1 75.2462 387.437 75.4545C386.793 75.6439 386.064 75.8239 385.25 75.9943C384.435 76.1458 383.621 76.2879 382.807 76.4205C381.992 76.5341 381.253 76.6383 380.591 76.733C379.17 76.9413 377.93 77.2727 376.869 77.7273C375.808 78.1818 374.985 78.7973 374.397 79.5739C373.81 80.3314 373.517 81.2784 373.517 82.4148C373.517 84.0625 374.113 85.322 375.307 86.1932C376.519 87.0455 378.053 87.4716 379.909 87.4716ZM430.122 95.8523C425.652 95.8523 421.807 94.9053 418.588 93.0114C415.387 91.0985 412.925 88.447 411.201 85.0568C409.497 81.6667 408.645 77.7652 408.645 73.3523C408.645 68.8826 409.506 64.9621 411.23 61.5909C412.972 58.2008 415.444 55.5587 418.645 53.6648C421.845 51.7519 425.652 50.7955 430.065 50.7955C433.872 50.7955 437.205 51.4867 440.065 52.8693C442.925 54.2519 445.188 56.1932 446.855 58.6932C448.521 61.1932 449.44 64.1288 449.611 67.5H438.19C437.868 65.322 437.016 63.5701 435.633 62.2443C434.27 60.8996 432.48 60.2273 430.264 60.2273C428.389 60.2273 426.751 60.7386 425.349 61.7614C423.967 62.7652 422.887 64.233 422.111 66.1648C421.334 68.0966 420.946 70.4356 420.946 73.1818C420.946 75.9659 421.325 78.3333 422.082 80.2841C422.859 82.2348 423.948 83.7216 425.349 84.7443C426.751 85.767 428.389 86.2784 430.264 86.2784C431.646 86.2784 432.887 85.9943 433.986 85.4261C435.103 84.858 436.021 84.0341 436.741 82.9545C437.48 81.8561 437.963 80.5398 438.19 79.0057H449.611C449.421 82.339 448.512 85.2746 446.883 87.8125C445.273 90.3314 443.048 92.3011 440.207 93.7216C437.366 95.142 434.004 95.8523 430.122 95.8523ZM468.325 82.4432L468.353 67.9261H470.115L484.092 51.3636H497.984L479.206 73.2955H476.336L468.325 82.4432ZM457.359 95V36.8182H469.461V95H457.359ZM484.632 95L471.791 75.9943L479.859 67.4432L498.808 95H484.632ZM503.922 95V51.3636H515.655V58.9773H516.109C516.905 56.2689 518.24 54.2235 520.115 52.8409C521.99 51.4394 524.149 50.7386 526.592 50.7386C527.198 50.7386 527.852 50.7765 528.552 50.8523C529.253 50.928 529.869 51.0322 530.399 51.1648V61.9034C529.831 61.733 529.045 61.5814 528.041 61.4489C527.037 61.3163 526.119 61.25 525.285 61.25C523.505 61.25 521.914 61.6383 520.512 62.4148C519.13 63.1723 518.031 64.233 517.217 65.5966C516.422 66.9602 516.024 68.5322 516.024 70.3125V95H503.922Z" fill="#66FFCC"/>
</svg>
